# xmcd
#
# Track frame offsets: 
#        150
#        3182
#        18561
#        32571
#        50597
#        72545
#        92762
#        104619
#        118816
#        134790
#        138599
#        150494
#        164454
#        170790
#        189739
#        204562
#        221482
#        242962
#        261170
#        280525
#
# Disc length: 4052 seconds
#
# Revision: 2
# Processed by: cddbd v1.5.2PL0 Copyright (c) Steve Scherf et al.
# Submitted via: ExactAudioCopyFreeDBPlugin 1.0
#
DISCID=320fd214
DTITLE=John Legend - Love in the Future (Deluxe Edition)
DYEAR=2013
DGENRE=Soul
TTITLE0=Love In The Future (intro)
TTITLE1=The Beginning...
TTITLE2=Open Your Eyes
TTITLE3=Made To Love
TTITLE4=Who Do We Think We Are (ft Rick Ross)
TTITLE5=All Of Me
TTITLE6=Hold On Longer
TTITLE7=Save The Night
TTITLE8=Tomorrow
TTITLE9=What If I Told You? (interlude)
TTITLE10=Dreams
TTITLE11=Wanna Be Loved
TTITLE12=Angel (interlude) (ft Stacy Barthe)
TTITLE13=You and I (Nobody In The World)
TTITLE14=Asylum
TTITLE15=Caught Up
TTITLE16=So Gone
TTITLE17=We Loved It (ft Seal)
TTITLE18=Aim High
TTITLE19=For The First Time
EXTD=
EXTT0=
EXTT1=
EXTT2=
EXTT3=
EXTT4=
EXTT5=
EXTT6=
EXTT7=
EXTT8=
EXTT9=
EXTT10=
EXTT11=
EXTT12=
EXTT13=
EXTT14=
EXTT15=
EXTT16=
EXTT17=
EXTT18=
EXTT19=
PLAYORDER=
